<?xml version="1.0" encoding="utf-8"?>
<svg version="1.1" xmlns="http://www.w3.org/2000/svg" xmlns:xlink="http://www.w3.org/1999/xlink" x="0px" y="0px" viewBox="0 0 131.7 107.7" enable-background="new 0 0 131.7 107.7" xml:space="preserve">
	<g>
		<g>
			<polygon fill="none" stroke="#FFFFFF" stroke-width="10" stroke-miterlimit="10" points="31.3,0 31.3,107.7 100.4,107.7 
				100.4,22.8 81.5,0 		"/>
			<polyline fill="none" stroke="#FFFFFF" stroke-width="10" stroke-miterlimit="10" points="100.4,22.8 81.5,22.8 81.5,0 		"/>
		</g>
		<path fill="#FFFFFF" d="M120.3,37.1H11.4C5.1,37.1,0,43.3,0,50.9v45.9h28.9V82.5h74v14.3h28.9V50.9
			C131.7,43.3,126.6,37.1,120.3,37.1z M120,51.2c-1.6,0-2.8-1.5-2.8-3.4c0-1.9,1.3-3.4,2.8-3.4c1.6,0,2.8,1.5,2.8,3.4
			C122.8,49.7,121.5,51.2,120,51.2z"/>
	</g>
</svg>
